PathFileType	4	(X/Y/Z)	D:\TRACE\v60_Jaco2_6-2-23\JustBodyDRS_Motion3_7-platform.trc
DataRate	CameraRate	NumFrames	NumMarkers	Units	OrigDataRate	OrigDataStartFrame	OrigNumFrames
100.00	100.00	      61	5	mm	100.00	1751	      7000
Frame#	Time	Left_Front			Right_Front			Left_Aft			Right_Aft			Post			
		X1	Y1	Z1	X2	Y2	Z2	X3	Y3	Z3	X4	Y4	Z4	X5	Y5	Z5	

1751	17.500	-799.54218	11.62533	-650.94446	771.17102	9.86944	-627.97455	-730.90729	9.74517	483.31689	683.98248	7.37238	588.88885	-3.74782	1310.04810	-960.24738	
1752	17.510	-799.58734	11.67556	-650.94836	771.16876	9.75589	-627.98602	-730.95636	9.74914	483.32144	683.73700	7.22433	588.98114	-3.73263	1310.06653	-960.05200	
1753	17.520	-799.44122	11.56806	-650.79138	771.08533	9.87780	-627.97882	-730.90607	9.72626	483.32855	683.74963	7.20647	589.01453	-3.61100	1310.07898	-959.78229	
1754	17.530	-799.38031	11.62792	-650.69080	771.19409	9.98009	-627.92773	-730.93604	9.71078	483.35046	684.05609	7.25875	588.96460	-3.67060	1310.18701	-959.58978	
1755	17.540	-799.30847	11.74683	-650.69440	771.23193	9.99905	-627.88031	-730.89587	9.72423	483.32745	683.87756	7.20067	589.11072	-3.62709	1310.24670	-959.48914	
1756	17.550	-799.44922	11.78388	-650.83435	771.25079	9.97227	-627.91431	-730.91425	9.67657	483.31155	683.80646	7.17639	589.06207	-3.67915	1310.30457	-959.45782	
1757	17.560	-799.50311	11.74187	-650.81421	771.13220	9.95572	-627.96143	-730.97845	9.69032	483.46246	683.74127	7.05872	589.03802	-3.70063	1310.26233	-959.37561	
1758	17.570	-799.45703	11.70426	-650.73853	771.11951	9.98671	-627.94653	-730.95673	9.67971	483.39114	683.83099	7.07535	589.09302	-3.67926	1310.27185	-959.41803	
1759	17.580	-799.41138	11.69037	-650.69482	771.16095	9.97020	-627.94196	-730.98950	9.82561	483.41196	683.86481	7.12746	589.09320	-3.66528	1310.24316	-959.45764	
1760	17.590	-799.28735	11.75936	-650.64587	771.29266	10.06136	-627.85846	-730.78082	9.63948	483.38644	683.91510	7.17112	589.07452	-3.60700	1310.27893	-959.53296	
1761	17.600	-799.28857	11.79727	-650.71082	771.39105	10.07548	-627.83386	-730.74207	9.67250	483.35837	683.94580	7.17412	589.08057	-3.55552	1310.30444	-959.69183	
1762	17.610	-799.22864	11.82257	-650.72076	771.47339	10.05727	-627.85046	-730.67291	9.70107	483.35477	684.15802	7.19403	588.94641	-3.47309	1310.24878	-959.82635	
1763	17.620	-799.15802	11.79497	-650.61786	771.52997	9.97423	-627.82379	-730.71179	9.79101	483.37003	684.29504	7.15394	588.93073	-3.35172	1310.16162	-959.88910	
1764	17.630	-799.05139	11.69789	-650.54559	771.59686	9.92350	-627.82397	-730.62531	9.71829	483.38889	684.38080	7.20854	588.95831	-3.25562	1310.11646	-959.95123	
1765	17.640	-799.07825	11.71361	-650.62878	771.65430	9.99001	-627.77948	-730.52905	9.68631	483.36990	684.38647	7.22910	588.95959	-3.26705	1310.14478	-959.99719	
1766	17.650	-799.07593	11.74479	-650.67029	771.74121	9.97486	-627.75043	-730.45917	9.72196	483.29562	684.42114	7.29823	588.95471	-3.32821	1310.17261	-960.05627	
1767	17.660	-799.11523	11.76697	-650.74731	771.68628	9.94386	-627.78168	-730.50714	9.78133	483.28671	684.36102	7.30049	588.94067	-3.36463	1310.13416	-959.98456	
1768	17.670	-799.07739	11.70709	-650.65454	771.65619	9.84167	-627.80530	-730.45569	9.72048	483.30240	684.30334	7.32396	588.93018	-3.31765	1310.03992	-959.94794	
1769	17.680	-799.06061	11.51482	-650.59277	771.57294	9.76924	-627.82513	-730.35120	9.41502	483.52283	684.31781	7.37978	588.92084	-3.38232	1309.95105	-959.93640	
1770	17.690	-799.05396	11.41241	-650.58704	771.57025	9.69083	-627.87183	-730.63867	10.03990	483.13361	684.36957	7.46145	588.89923	-3.29291	1309.90356	-959.94250	
1771	17.700	-798.99139	11.37638	-650.72321	771.62152	9.68926	-627.86584	-730.59338	10.18685	483.00510	684.40363	7.55368	588.86865	-3.24213	1309.81836	-959.99786	
1772	17.710	-799.06329	11.32944	-650.79266	771.66235	9.62513	-627.87598	-730.51776	10.32988	482.93109	684.36011	7.56632	588.86615	-3.27170	1309.73035	-960.14923	
1773	17.720	-798.98712	11.19768	-650.77313	771.61310	9.47940	-627.96649	-730.49744	10.37187	482.95441	684.40460	7.60214	588.83105	-3.30269	1309.54822	-960.40900	
1774	17.730	-798.96802	11.01420	-650.74677	771.67255	9.36248	-628.01495	-730.50140	10.34998	482.90915	684.42236	7.63822	588.80548	-3.25060	1309.37732	-960.83832	
1775	17.740	-798.97388	10.94346	-650.76172	771.66217	9.35913	-628.02728	-730.56653	10.39564	482.90042	684.38397	7.67052	588.77087	-3.30507	1309.24561	-961.34937	
1776	17.750	-798.97290	10.93019	-650.83496	771.74133	9.24461	-628.06641	-730.49445	10.52941	482.84451	684.40680	7.70477	588.75354	-3.17347	1309.18079	-961.61731	
1777	17.760	-798.99121	10.93780	-650.81628	771.70380	9.33090	-628.03668	-730.46222	10.68051	482.86954	684.36456	7.73912	588.67676	-3.06090	1309.10571	-962.03540	
1778	17.770	-798.97040	10.89592	-650.80298	771.71698	9.31118	-628.04126	-730.46246	10.74974	482.78027	684.44995	7.80520	588.65851	-3.03090	1308.99829	-962.38129	
1779	17.780	-798.98560	10.78965	-650.80426	771.76172	9.15709	-628.00867	-730.44135	10.73202	482.88480	684.46002	7.82920	588.64539	-3.05252	1308.85059	-962.71674	
1780	17.790	-798.99817	10.62266	-650.79553	771.75122	8.89946	-628.04572	-730.45099	10.86176	482.88284	684.46692	7.84184	588.60156	-2.98102	1308.60156	-962.90460	
1781	17.800	-798.91138	10.56432	-650.84851	771.73102	8.80844	-628.09949	-730.52661	10.90872	482.79779	684.38159	7.90165	588.58014	-3.05459	1308.33984	-962.97034	
1782	17.810	-798.90161	10.62549	-650.91296	771.67847	8.69128	-628.24152	-730.52728	10.96767	482.77472	684.38641	8.02223	588.59271	-2.99093	1308.18188	-963.05957	
1783	17.820	-798.96796	10.59614	-650.88177	771.65509	8.66939	-628.24835	-730.49792	11.14213	482.77243	684.38690	8.08887	588.60547	-3.00517	1308.15649	-963.10321	
1784	17.830	-798.98553	10.51329	-650.83539	771.66309	8.53047	-628.22742	-730.39575	11.28188	482.84354	684.19574	8.16370	588.68970	-3.00342	1307.97437	-963.07153	
1785	17.840	-798.99744	10.40003	-650.80676	771.62579	8.37578	-628.27295	-730.44489	11.34530	482.81445	683.84961	7.98537	588.56818	-3.03855	1307.75720	-962.96906	
1786	17.850	-798.98212	10.24656	-650.91095	771.71399	8.21574	-628.24164	-730.53705	11.29118	482.72076	683.81482	8.00902	588.45551	-3.03512	1307.69751	-963.10815	
1787	17.860	-798.86017	10.13572	-650.96680	771.75977	8.07668	-628.24847	-730.41125	11.35573	482.72638	683.99139	8.26819	588.51080	-3.00827	1307.57410	-963.39929	
1788	17.870	-798.79749	10.11164	-650.94678	771.74792	8.02965	-628.26324	-730.54523	11.46017	482.72870	684.16882	8.46475	588.47601	-3.03045	1307.40845	-963.60480	
1789	17.880	-798.79431	9.84556	-650.98755	771.82422	8.03862	-628.23615	-730.52582	11.56238	482.70670	684.23486	8.56621	588.36951	-3.12021	1307.27112	-963.95129	
1790	17.890	-798.81305	9.71012	-651.07068	771.81879	7.93950	-628.23254	-730.50726	11.59766	482.70786	684.18500	8.68453	588.33289	-3.12684	1307.10486	-964.48700	
1791	17.900	-798.93408	9.61136	-651.24298	771.79175	7.78316	-628.33527	-730.50714	11.57921	482.66769	684.26978	8.79563	588.21851	-3.06431	1306.84961	-964.96600	
1792	17.910	-799.02057	9.54441	-651.41718	771.73566	7.59488	-628.35736	-730.54901	11.61328	482.70209	684.38434	8.93818	588.22681	-2.91096	1306.54919	-965.51630	
1793	17.920	-799.08569	9.41167	-651.54413	771.72070	7.50445	-628.38318	-730.49640	11.72352	482.68729	684.48914	9.10871	588.24121	-2.96502	1306.30286	-965.87756	
1794	17.930	-798.92053	8.94720	-651.35638	771.80261	7.39423	-628.42139	-730.50031	11.88531	482.58994	684.64160	9.31071	588.28839	-2.89896	1306.06494	-966.28766	
1795	17.940	-798.92706	8.65217	-651.19745	771.76520	7.23529	-628.51239	-730.41980	11.89980	482.59488	684.63867	9.34382	588.23480	-2.93646	1306.01208	-966.61646	
1796	17.950	-798.88623	8.52032	-651.07483	771.75305	7.11382	-628.45062	-730.49792	12.10741	482.39862	684.54913	9.40739	588.09961	-3.01005	1305.89978	-966.90765	
1797	17.960	-799.08942	8.31244	-651.24365	771.55579	6.86526	-628.49512	-730.47473	11.99531	482.51773	684.30371	9.58509	588.05737	-2.99497	1305.66382	-967.07129	
1798	17.970	-799.17688	8.25283	-651.27667	771.48639	6.74488	-628.52240	-730.54517	12.07581	482.53305	684.22516	9.72850	588.02460	-3.12744	1305.29480	-967.30035	
1799	17.980	-799.20190	8.19803	-651.27185	771.40265	6.67723	-628.53723	-730.66919	12.21772	482.46939	684.19958	9.99075	588.05426	-3.55404	1304.83838	-967.45697	
1800	17.990	-799.27698	8.17012	-651.29517	771.22650	6.54060	-628.71222	-730.80872	12.37324	482.41068	684.19037	10.07658	587.96771	-3.56255	1304.92932	-967.84668	
1801	18.000	-799.39520	8.11869	-651.37146	771.13922	6.41327	-628.74011	-730.87616	12.51015	482.37238	683.96381	10.02650	587.82953	-3.62257	1304.79968	-968.10815	
1802	18.010	-799.55731	8.02642	-651.50922	771.03656	6.26770	-628.79321	-730.89905	12.56350	482.35529	683.78833	9.78960	587.69025	-3.68567	1304.65698	-968.28644	
1803	18.020	-799.64191	7.93703	-651.49426	770.90839	6.12952	-628.85889	-730.99774	12.56759	482.39380	683.50378	10.07643	587.96906	-3.81299	1304.48376	-968.47791	
1804	18.030	-799.64020	7.82138	-651.41309	771.03625	5.85326	-629.25482	-731.06464	12.59306	482.38913	683.44464	10.08779	587.96448	-3.79553	1304.29712	-968.66644	
1805	18.040	-799.65387	7.66829	-651.52075	770.78625	5.95961	-628.93353	-731.13281	12.73833	482.37277	683.43201	10.18549	587.96851	-3.71418	1304.18909	-968.92310	
1806	18.050	-799.88959	7.58036	-651.75140	770.70868	5.91562	-628.90747	-731.23962	12.86586	482.26193	683.28912	10.19253	588.16486	-3.81081	1304.12952	-969.27631	
1807	18.060	-799.98090	7.51080	-651.80695	770.64825	5.80143	-628.92450	-731.32227	12.96788	482.26901	683.37872	10.39899	588.06763	-3.99357	1304.02588	-969.54541	
1808	18.070	-800.09235	7.35567	-651.86548	770.56653	5.66889	-628.97369	-731.39862	12.94894	482.22968	683.16425	10.33247	587.90826	-4.00138	1303.75513	-969.70569	
1809	18.080	-800.20190	7.13571	-651.86444	770.47241	5.54290	-629.01703	-731.52161	13.00145	482.19232	683.32550	10.67560	587.90515	-4.18409	1303.48853	-970.01129	
1810	18.090	-800.64203	6.91124	-651.77228	770.41101	5.43881	-629.00385	-731.69263	13.13514	482.14807	683.36169	10.87392	587.91858	-4.44857	1303.26843	-970.35645	
1811	18.100	-800.74603	6.75876	-652.08179	770.36292	5.32221	-629.03351	-731.81793	13.28170	482.03061	683.36438	11.12560	587.85559	-4.56540	1303.11218	-970.64978	
